HIERARCHY
ROOT Hips
{
	OFFSET 0.00000 0.00000 0.00000
	CHANNELS 6 Xposition Yposition Zposition Zrotation Yrotation Xrotation 
	JOINT LHipJoint
	{
		OFFSET 0 0 0
		CHANNELS 3 Zrotation Yrotation Xrotation
		JOINT LeftUpLeg
		{
			OFFSET 1.44960 -1.75505 0.85172
			CHANNELS 3 Zrotation Yrotation Xrotation
			JOINT LeftLeg
			{
				OFFSET 2.40573 -6.60971 0.00000
				CHANNELS 3 Zrotation Yrotation Xrotation
				JOINT LeftFoot
				{
					OFFSET 2.58773 -7.10974 0.00000
					CHANNELS 3 Zrotation Yrotation Xrotation
					JOINT LeftToeBase
					{
						OFFSET 0.18252 -0.50147 1.77316
						CHANNELS 3 Zrotation Yrotation Xrotation
						End Site
						{
							OFFSET 0.00000 -0.00000 0.92990
						}
					}
				}
			}
		}
	}
	JOINT RHipJoint
	{
		OFFSET 0 0 0
		CHANNELS 3 Zrotation Yrotation Xrotation
		JOINT RightUpLeg
		{
			OFFSET -1.40744 -1.75505 0.85172
			CHANNELS 3 Zrotation Yrotation Xrotation
			JOINT RightLeg
			{
				OFFSET -2.43714 -6.69600 0.00000
				CHANNELS 3 Zrotation Yrotation Xrotation
				JOINT RightFoot
				{
					OFFSET -2.51650 -6.91404 0.00000
					CHANNELS 3 Zrotation Yrotation Xrotation
					JOINT RightToeBase
					{
						OFFSET -0.25383 -0.69740 1.96384
						CHANNELS 3 Zrotation Yrotation Xrotation
						End Site
						{
							OFFSET -0.00000 -0.00000 1.04244
						}
					}
				}
			}
		}
	}
	JOINT LowerBack
	{
		OFFSET 0 0 0
		CHANNELS 3 Zrotation Yrotation Xrotation
		JOINT Spine
		{
			OFFSET 0.00579 2.14458 -0.24367
			CHANNELS 3 Zrotation Yrotation Xrotation
			JOINT Spine1
			{
				OFFSET 0.05899 2.16316 -0.04515
				CHANNELS 3 Zrotation Yrotation Xrotation
				JOINT Neck
				{
					OFFSET 0 0 0
					CHANNELS 3 Zrotation Yrotation Xrotation
					JOINT Neck1
					{
						OFFSET -0.01650 1.59577 0.24841
						CHANNELS 3 Zrotation Yrotation Xrotation
						JOINT Head
						{
							OFFSET -0.01016 1.63072 -0.17782
							CHANNELS 3 Zrotation Yrotation Xrotation
							End Site
							{
								OFFSET -0.00250 1.64111 -0.08717
							}
						}
					}
				}
				JOINT LeftShoulder
				{
					OFFSET 0 0 0
					CHANNELS 3 Zrotation Yrotation Xrotation
					JOINT LeftArm
					{
						OFFSET 3.17745 0.95174 -0.45729
						CHANNELS 3 Zrotation Yrotation Xrotation
						JOINT LeftForeArm
						{
							OFFSET 4.93485 -0.00000 0.00000
							CHANNELS 3 Zrotation Yrotation Xrotation
							JOINT LeftHand
							{
								OFFSET 3.41719 -0.00000 -0.00000
								CHANNELS 3 Zrotation Yrotation Xrotation
								JOINT LeftFingerBase
								{
									OFFSET 0 0 0
									CHANNELS 3 Zrotation Yrotation Xrotation
									JOINT LeftHandIndex1
									{
										OFFSET 0.62410 -0.00000 -0.00000
										CHANNELS 3 Zrotation Yrotation Xrotation
										End Site
										{
											OFFSET 0.50317 -0.00000 -0.00000
										}
									}
								}
								JOINT LThumb
								{
									OFFSET 0 0 0
									CHANNELS 3 Zrotation Yrotation Xrotation
									End Site
									{
										OFFSET 0.51085 -0.00000 0.51085
									}
								}
							}
						}
					}
				}
				JOINT RightShoulder
				{
					OFFSET 0 0 0
					CHANNELS 3 Zrotation Yrotation Xrotation
					JOINT RightArm
					{
						OFFSET -2.87924 1.13038 -0.75204
						CHANNELS 3 Zrotation Yrotation Xrotation
						JOINT RightForeArm
						{
							OFFSET -5.22034 -0.00000 0.00000
							CHANNELS 3 Zrotation Yrotation Xrotation
							JOINT RightHand
							{
								OFFSET -3.41809 -0.00000 -0.00000
								CHANNELS 3 Zrotation Yrotation Xrotation
								JOINT RightFingerBase
								{
									OFFSET 0 0 0
									CHANNELS 3 Zrotation Yrotation Xrotation
									JOINT RightHandIndex1
									{
										OFFSET -0.77534 -0.00000 -0.00000
										CHANNELS 3 Zrotation Yrotation Xrotation
										End Site
										{
											OFFSET -0.62510 -0.00000 -0.00000
										}
									}
								}
								JOINT RThumb
								{
									OFFSET 0 0 0
									CHANNELS 3 Zrotation Yrotation Xrotation
									End Site
									{
										OFFSET -0.63464 -0.00000 0.63464
									}
								}
							}
						}
					}
				}
			}
		}
	}
}
MOTION
Frames: 8
Frame Time: .0083333
0.9238 17.2884 -22.8259 5.4293 10.2840 3.5386 0.0000 0.0000 0.0000 -31.7958 0.0637 11.6217 0.1185 2.2197 6.1131 0.2489 -12.5088 -11.7745 0.8272 5.8027 16.2130 0.0000 0.0000 0.0000 7.9384 9.7608 -30.4426 -0.7158 -5.4068 15.0725 -0.3328 -11.3290 -20.1800 -0.0725 1.7376 -4.7810 -7.6351 -3.0583 8.3450 -0.3621 -4.9478 -2.2463 4.5527 -2.1312 -6.4518 -3.0595 -0.2866 -16.5988 0.3053 0.3158 16.0454 0.6378 -0.0093 7.6787 0.0000 -0.0000 0.0000 -85.0311 -9.1940 38.8616 22.6647 -33.7202 -6.9513 -0.0000 -0.0000 3.4982 5.1066 39.4994 3.2533 -7.1250 0.0000 -0.0000 -39.2463 65.4612 -20.8155 0.0000 -0.0000 0.0000 84.7686 3.6938 0.7217 -15.8241 25.2816 -3.5705 0.0000 -0.0000 -12.1999 -10.2012 27.1063 -4.6874 7.1250 -0.0000 -0.0000 11.8637 -3.0038 11.4782
0.9281 17.2769 -22.7206 5.5930 10.2075 3.8888 0.0000 0.0000 0.0000 -31.9165 0.1040 11.8419 0.1073 2.1126 5.8168 0.2309 -12.6005 -11.6237 0.7941 5.6882 15.8823 0.0000 0.0000 0.0000 8.3698 8.7418 -31.2064 -0.7546 -5.5482 15.4789 -0.2492 -11.1090 -19.0077 -0.1164 2.1997 -6.0580 -7.5551 -3.1924 8.2253 -0.4416 -5.1132 -2.2649 4.4351 -2.2197 -6.3952 -2.8465 -0.1654 -17.1135 -0.0556 0.5214 16.5317 0.5091 0.0597 7.9285 -0.0000 0.0000 0.0000 -84.9581 -9.1650 38.5274 22.5343 -33.5756 -6.8790 -0.0000 -0.0000 3.5649 4.7591 39.7645 3.0482 -7.1250 0.0000 -0.0000 -39.9833 65.5609 -21.3527 -0.0000 0.0000 0.0000 84.9249 3.8434 0.7709 -15.9260 25.4202 -3.6141 0.0000 -0.0000 -11.9514 -10.4328 26.6075 -4.7143 7.1250 -0.0000 -0.0000 11.7046 -3.4666 11.2159
0.9271 17.2644 -22.6085 5.2855 10.0939 3.8606 0.0000 0.0000 0.0000 -31.5507 0.2959 12.1212 0.1065 2.1043 5.7941 0.2495 -12.4775 -11.7650 0.6084 4.9926 13.8874 0.0000 0.0000 0.0000 9.0727 8.5153 -31.3193 -0.7962 -5.6955 15.9035 -0.2413 -11.1104 -18.9199 -0.0773 1.7933 -4.9349 -7.1892 -3.1268 8.4879 -0.4189 -5.0163 -2.4166 4.2723 -2.1663 -6.7468 -2.7859 -0.2054 -16.9907 -0.0879 0.4528 16.4874 0.4801 0.0284 7.8934 -0.0000 0.0000 0.0000 -84.9341 -8.9260 38.4734 22.2645 -33.2746 -6.7304 -0.0000 -0.0000 4.5061 4.2186 39.5148 2.6871 -7.1250 0.0000 -0.0000 -40.1504 65.2192 -21.1460 -0.0000 0.0000 0.0000 84.9473 3.3941 0.9656 -15.9002 25.3852 -3.6031 0.0000 -0.0000 -12.2567 -10.6763 26.6254 -4.8293 7.1250 -0.0000 -0.0000 11.5602 -3.4195 11.0818
0.9236 17.2614 -22.4850 5.5369 10.1776 3.9133 0.0000 0.0000 0.0000 -31.7577 0.1169 12.0275 0.1555 2.5406 7.0022 0.3037 -12.4677 -12.3467 0.6198 5.0382 14.0176 0.0000 0.0000 0.0000 9.1584 8.1226 -31.0493 -0.7971 -5.6988 15.9129 -0.2354 -11.1086 -18.8490 -0.0300 1.1178 -3.0731 -7.4145 -3.2236 8.3744 -0.4192 -5.1534 -2.2942 4.3983 -2.2380 -6.5160 -3.1945 -0.0413 -16.5942 0.5921 0.6292 16.0497 0.7900 0.1599 7.6717 0.0000 -0.0000 0.0000 -84.9946 -9.0583 38.3978 21.9425 -32.9120 -6.5546 -0.0000 -0.0000 4.6504 4.5642 38.7140 2.8583 -7.1250 0.0000 -0.0000 -38.6663 64.7101 -19.8071 0.0000 -0.0000 0.0000 84.8892 3.5633 0.6486 -15.7950 25.2419 -3.5581 0.0000 -0.0000 -12.0138 -9.5102 26.9765 -4.3458 7.1250 -0.0000 -0.0000 12.2680 -3.2133 11.8400
0.9136 17.2514 -22.3697 5.0522 10.2654 4.0197 0.0000 0.0000 0.0000 -31.0959 0.0526 12.2892 0.1610 2.5853 7.1263 0.3082 -12.5514 -12.4341 0.6293 5.0761 14.1258 0.0000 0.0000 0.0000 10.1550 7.7182 -31.3169 -0.8450 -5.8632 16.3879 -0.1835 -11.0239 -18.1342 -0.0750 1.7668 -4.8617 -6.9061 -3.2342 8.4784 -0.2948 -5.1126 -2.2953 4.2514 -2.2321 -6.6102 -2.7198 -0.0760 -17.2096 -0.0373 0.6093 16.4077 0.5044 0.1126 7.9026 -0.0000 -0.0000 0.0000 -85.0460 -9.2034 38.1998 21.4747 -32.3783 -6.3022 -0.0000 -0.0000 5.4228 4.8469 38.4226 3.0166 -7.1250 0.0000 -0.0000 -37.9825 64.5647 -19.2818 -0.0000 -0.0000 0.0000 84.8755 3.8649 0.0350 -15.4728 24.8006 -3.4218 0.0000 -0.0000 -11.6244 -9.4045 26.9912 -4.2989 7.1250 -0.0000 -0.0000 12.3312 -3.2112 11.9044
0.8909 17.2525 -22.2647 4.3649 10.2244 4.0396 0.0000 0.0000 0.0000 -30.2055 0.0716 12.3540 0.1615 2.5888 7.1360 0.2851 -12.3573 -12.0947 0.5526 4.7618 13.2304 0.0000 0.0000 0.0000 11.0256 8.4577 -31.1289 -0.9057 -6.0647 16.9723 -0.2296 -11.1648 -18.8487 -0.0113 0.6873 -1.8887 -5.7501 -3.4187 8.7609 -0.5254 -5.2685 -2.3488 3.4140 -2.3473 -6.9285 -2.2901 0.1502 -17.2524 0.3656 0.7281 16.3643 0.5818 0.2376 7.8920 0.0000 0.0000 0.0000 -84.2360 -8.9744 37.7547 21.2985 -32.1751 -6.2081 -0.0000 -0.0000 5.4065 4.8079 38.7267 3.0121 -7.1250 0.0000 -0.0000 -38.4409 64.7879 -19.7434 0.0000 0.0000 0.0000 85.7638 3.6831 0.0722 -15.4641 24.7887 -3.4182 0.0000 -0.0000 -11.4163 -9.6727 26.9542 -4.4178 7.1250 -0.0000 -0.0000 12.1708 -3.2161 11.7409
0.9119 17.2291 -22.1033 5.4557 10.2968 4.1311 0.0000 0.0000 0.0000 -31.4027 0.1201 12.8863 0.1813 2.7428 7.5634 0.2912 -12.4517 -12.2058 0.4534 4.3196 11.9777 0.0000 0.0000 0.0000 10.5810 6.6861 -31.2832 -0.9575 -6.2309 17.4557 -0.2707 -9.5056 -17.4364 -0.0335 1.1821 -3.2499 -7.2455 -3.4160 8.3302 -0.2910 -5.3661 -2.0527 4.4486 -2.3675 -6.2068 -2.8235 0.0846 -17.6610 -0.0494 0.8725 16.2802 0.5489 0.2304 7.9348 0.0000 0.0000 0.0000 -85.3418 -9.4505 37.0950 20.6558 -31.4243 -5.8694 -0.0000 -0.0000 6.4687 3.6891 39.1068 2.3289 -7.1250 0.0000 -0.0000 -40.0856 64.7634 -20.6929 0.0000 0.0000 0.0000 84.7121 4.0903 0.2672 -15.2891 24.5473 -3.3451 0.0000 -0.0000 -11.9722 -9.0691 27.0670 -4.1543 7.1250 -0.0000 -0.0000 12.5325 -3.1756 12.1170
0.9028 17.2192 -21.9671 5.6612 10.5215 4.2325 0.0000 0.0000 0.0000 -31.4712 -0.0241 13.3570 0.1938 2.8348 7.8192 0.3035 -12.4446 -12.3341 0.4099 4.1099 11.3862 0.0000 0.0000 0.0000 10.7563 6.2342 -31.1973 -1.0136 -6.4054 17.9653 -0.2574 -8.9771 -16.6876 -0.0710 1.7190 -4.7296 -7.2935 -3.4784 8.4862 -0.4770 -5.4837 -2.1234 4.3093 -2.4170 -6.3715 -2.3853 0.0211 -17.7707 -0.2557 0.7154 16.3841 0.3905 0.1611 7.9930 0.0000 0.0000 0.0000 -85.2088 -9.2799 36.7356 20.1852 -30.8649 -5.6261 -0.0000 -0.0000 6.9471 4.4512 38.3560 2.7656 -7.1250 0.0000 -0.0000 -38.2869 64.4039 -19.3174 0.0000 0.0000 0.0000 84.9982 3.9592 -0.2507 -15.0328 24.1918 -3.2394 0.0000 -0.0000 -11.5810 -9.0176 27.2220 -4.1521 7.1250 -0.0000 -0.0000 12.5686 -3.0297 12.1881
